<svg xmlns="http://www.w3.org/2000/svg" viewBox="0 0 512 512" role="img" aria-labelledby="title desc">
  <title id="title">CapDent</title>
  <desc id="desc">CapDent teal dental app icon</desc>
  <rect width="512" height="512" rx="128" fill="#0F766E"/>
  <path fill="#FFFFFF" d="M256 104c-31 0-49 17-75 17-54 0-91 43-91 101 0 35 14 66 30 97 17 33 23 89 44 89 25 0 24-91 50-91 27 0 26 91 51 91 21 0 27-56 44-89 16-31 30-62 30-97 0-58-37-101-91-101-26 0-44-17-72-17zm0 54c20 0 37 12 54 12 21 0 37 8 47 22-8-3-17-5-27-5-24 0-43 8-60 16-13 6-24 11-34 11-10 0-21-5-34-11-17-8-36-16-60-16-10 0-19 2-27 5 10-14 26-22 47-22 17 0 34-12 54-12z"/>
  <circle cx="372" cy="140" r="54" fill="#14B8A6"/>
  <path d="M372 108v64M340 140h64" stroke="#FFFFFF" stroke-width="18" stroke-linecap="round"/>
</svg>
